<svg width="63" height="46" viewBox="0 0 63 46" fill="none" xmlns="http://www.w3.org/2000/svg">
<path d="M26.048 0.00498076C29.582 -0.0448553 32.5026 0.245614 35.4775 2.42553C40.3502 5.99599 39.5977 12.1467 37.5808 17.0799C34.8692 23.7109 30.3759 29.698 25.4364 34.844C24.8486 35.4183 24.1747 35.9089 23.5739 36.4673C20.048 39.7421 16.0773 42.5076 12.3111 45.4978C11.7226 45.9652 11.049 45.3254 11.6421 44.6056C12.4497 43.6253 13.3246 42.5922 14.1424 41.6196L19.1977 35.602C20.1017 34.5348 20.9997 33.4612 21.8983 32.389C22.2222 32.0025 22.4897 31.5737 22.788 31.1676C23.443 30.2937 24.0855 29.4107 24.7153 28.5181C27.5237 24.5098 36.3673 10.8236 29.7689 6.36017C25.4018 3.40611 15.6752 5.36586 10.8141 7.0495C9.90604 7.36266 9.01007 7.70992 8.12811 8.09051C7.64002 8.29909 7.15516 8.54304 6.68053 8.74725C6.24723 8.90921 5.84549 9.15617 5.42965 8.83528C5.1308 8.60465 5.18363 8.11116 5.44593 7.91991C10.9324 3.92048 19.4543 0.191502 26.048 0.00498076Z" fill="#3374DF"/>
<path d="M16.8808 2.95682C17.5696 2.63479 18.4133 2.43822 19.1306 2.21905C23.2107 0.972516 28.2119 0.338016 32.2855 1.80641C36.5071 3.32795 38.6245 6.92578 38.1643 11.2828C38.1743 12.311 37.8202 13.1074 37.556 14.0621C37.1422 15.5596 36.5744 16.8497 35.9537 18.2602C34.0769 22.5273 31.3516 26.4413 28.4389 30.0626C27.8305 30.8193 26.9907 31.8624 26.252 32.5044C25.7467 33.1555 25.069 33.7667 24.4371 34.2982C23.2642 35.2854 22.3767 36.7623 21.0706 37.5726C20.2964 38.1969 19.6336 38.8071 18.9192 39.4974C18.5509 39.8529 17.9576 40.1244 17.545 40.4372C17.0717 40.7542 16.4964 41.2398 16.0206 41.5158C15.7323 41.7295 15.5704 41.78 15.2364 41.9169C15.399 41.67 15.5767 41.3876 15.7829 41.1793C15.8954 40.9893 16.2591 40.5818 16.4077 40.4122C16.4957 40.2072 16.5303 39.9743 16.631 39.7743C17.0163 39.0081 17.5391 38.4756 18.2934 38.0991C19.1594 37.1506 19.9771 36.1025 20.7741 35.0944C20.9555 34.8039 21.2656 34.4806 21.4733 34.1996C22.0319 33.4429 22.6864 32.7272 23.2653 32.0042C23.7538 31.394 24.241 30.6715 24.7445 30.0553C25.0199 29.7184 25.2507 29.3174 25.5549 28.985C25.6188 28.8431 26.0786 28.2065 26.1992 28.0251C26.6289 27.3803 27.1261 26.716 27.5082 26.0416C27.9962 25.1099 28.6563 24.2301 29.1377 23.3013C30.1498 21.3486 31.237 19.3207 31.9595 17.2424C32.3641 16.0778 32.5896 14.8278 32.8133 13.6353C33.333 10.8633 33.1744 7.55701 30.6626 5.77583C29.1588 4.6928 27.1887 4.26669 25.379 3.99141C24.5256 3.87842 23.6354 3.93617 22.786 3.89088C20.9303 3.79193 19.2284 4.14911 17.4128 4.44581L16.7702 4.42853C16.4737 4.44994 15.8697 4.69435 15.5913 4.73423C15.1512 4.79734 14.3767 4.83422 13.931 4.82694L13.905 4.77992C13.7561 4.73777 13.7396 4.74605 13.6307 4.63292C13.6564 4.49682 13.6295 4.56248 13.7697 4.45208C13.5931 4.42143 13.3844 4.54302 13.1849 4.59295L13.1629 4.51497C12.7676 4.6723 12.3975 4.92825 12.0098 5.10031C12.0688 4.99968 12.1431 4.75605 12.2304 4.67807C12.9051 4.07522 14.1248 3.59759 14.9781 3.31995C15.3362 3.20341 16.0129 3.18363 16.3551 3.14916C16.4386 3.12956 16.7811 2.99378 16.8808 2.95682Z" fill="#3374DF"/>
<path d="M16.8807 2.95682C17.5696 2.63479 18.4132 2.43822 19.1306 2.21905C23.2107 0.972516 28.2118 0.338016 32.2854 1.80641C36.507 3.32795 38.6244 6.92578 38.1643 11.2828C38.1743 12.311 37.8201 13.1074 37.556 14.0621C37.1422 15.5596 36.5743 16.8497 35.9537 18.2602C34.0768 22.5273 31.3515 26.4413 28.4389 30.0626C27.8305 30.8193 26.9906 31.8624 26.2519 32.5044C25.7467 33.1555 25.069 33.7667 24.4371 34.2982C23.2642 35.2854 22.3767 36.7623 21.0706 37.5726C20.2963 38.1969 19.6335 38.8071 18.9191 39.4974C18.5509 39.8529 17.9576 40.1244 17.545 40.4372C17.0717 40.7542 16.4964 41.2398 16.0206 41.5158C15.7323 41.7295 15.5704 41.78 15.2363 41.9169C15.399 41.67 15.5766 41.3876 15.7829 41.1793C15.8954 40.9893 16.2591 40.5818 16.4076 40.4122C16.4957 40.2072 16.5302 39.9743 16.631 39.7743C17.0163 39.0081 17.539 38.4756 18.2933 38.0991C19.1594 37.1506 19.977 36.1025 20.7741 35.0944C20.9555 34.8039 21.2656 34.4806 21.4732 34.1996C22.0318 33.4429 22.6863 32.7272 23.2652 32.0042C23.7538 31.394 24.2409 30.6715 24.7445 30.0553C25.0199 29.7184 25.2506 29.3174 25.5549 28.985C25.6188 28.8431 26.0785 28.2065 26.1992 28.0251C26.6289 27.3803 27.1261 26.716 27.5081 26.0416C27.9962 25.1099 28.6563 24.2301 29.1376 23.3013C30.1497 21.3486 31.237 19.3207 31.9594 17.2424C32.3641 16.0778 32.5896 14.8278 32.8133 13.6353C33.333 10.8633 33.1743 7.55701 30.6626 5.77583C29.1588 4.6928 27.1887 4.26669 25.3789 3.99141C24.5256 3.87842 23.6353 3.93617 22.786 3.89088C20.9302 3.79193 19.2283 4.14911 17.4128 4.44581L16.7702 4.42853C18.2708 3.98132 19.9617 3.64966 21.5188 3.58086C23.0058 3.51515 24.7481 3.24642 26.195 3.62646L26.2531 3.68671C27.2699 3.98478 28.739 4.46113 29.6903 4.85909C29.7182 4.79534 29.7014 4.80357 29.6847 4.70976C29.8184 4.68735 30.1585 4.86459 30.3122 4.93166L30.3517 5.02551C30.2345 5.02774 30.2701 5.03197 30.153 5.005C30.2401 5.1978 31.3579 5.83658 31.4889 5.97008C31.9472 6.4518 32.3991 6.93638 32.8797 7.39686C33.032 7.54287 33.1125 7.81742 33.213 7.99217C33.809 9.02567 33.8886 10.2181 33.9209 11.3839C33.9145 11.6604 33.9127 11.9371 33.8354 12.2047C33.7408 12.5325 33.874 12.9743 33.819 13.2997C33.5635 14.807 33.2407 16.3167 32.6846 17.7452C32.5432 18.1071 32.415 18.5258 32.2441 18.8692C31.8185 19.7241 31.3147 20.5451 30.8313 21.3682C30.4164 22.1354 30.0572 22.8944 29.5435 23.6048C29.2813 23.9672 29.228 24.4756 28.8676 24.7521C28.7024 24.883 28.7287 25.1195 28.625 25.2918C28.4572 25.5783 28.2458 25.9093 28.0353 26.1626L28.0465 26.1539C27.8386 26.3595 27.674 26.5018 27.5993 26.7978C27.3738 27.6913 26.4222 28.1242 26.156 28.985C26.0116 29.3701 25.6798 29.6675 25.4503 30.003C24.2785 31.7187 22.8859 33.301 21.5345 34.8752C20.8572 35.6642 20.3106 36.5249 19.5082 37.1833C19.3729 37.2943 19.1488 37.7727 19.0137 37.9182C18.913 38.0641 18.5967 38.3174 18.6484 38.4847C18.796 38.2906 18.8323 38.2278 19.0267 38.0782L19.0581 38.0987C18.8825 38.5056 17.9886 39.3955 17.6179 39.712C17.4721 39.8361 17.3208 40.1167 17.3744 40.3013L17.4348 40.3404C17.7824 40.1885 17.8408 39.963 18.0818 39.7856C18.9756 39.129 19.5173 38.1687 20.4884 37.6162C20.737 37.4716 20.9891 37.3334 21.2443 37.2011C22.3212 36.6263 24.3007 33.7976 25.2449 32.8586C25.5423 32.3966 26.3906 31.3494 26.7639 30.9411C27.5671 30.2586 28.4271 29.0782 29.1455 28.2811C29.3872 28.0128 29.6491 27.3985 29.9052 27.1079C30.1826 26.7933 30.694 25.6947 31.0078 25.5124C31.0452 25.5155 31.0959 25.4769 31.1166 25.4496C31.7562 24.6157 32.1218 23.8122 32.5791 22.8865C32.932 22.2098 33.6817 21.4503 33.9923 20.7739C35.2672 18.0001 36.6489 15.2007 37.4127 12.2431C37.4473 12.1093 37.1736 10.812 37.1554 10.5719C37.1331 10.286 37.009 9.77089 36.9767 9.46519C36.9044 9.11725 36.8217 8.53295 36.6948 8.24362C36.0856 6.85803 35.2726 5.52037 34.1209 4.50337C33.4839 4.07672 32.6601 3.29426 31.934 3.10869C31.6785 3.04344 31.6539 3.15316 31.3493 2.81518C31.1058 2.54494 30.9577 2.65821 30.6514 2.65639C30.5712 2.65594 30.0269 2.47405 29.9327 2.44409L29.9493 2.42067L30.6239 2.48201C30.5186 2.40698 29.7874 2.20687 29.6408 2.18627L29.6621 2.33737C29.5848 2.34801 28.9618 2.19059 28.7634 2.16544L28.7256 2.20227L28.8355 2.28035C28.7694 2.29644 28.7195 2.31218 28.6547 2.33228L28.5737 2.25866L28.4162 2.27339C28.2137 2.12857 28.1786 2.25484 27.982 2.17017C27.8986 2.18741 27.9323 2.18327 27.8474 2.1895L27.7878 2.19336C27.5989 2.1036 27.5477 2.13193 27.3564 2.09201C26.3385 1.87948 25.3917 1.89134 24.366 1.99656C24.0348 2.02712 23.5077 1.98633 23.1302 2.01261C21.6335 2.11674 20.1812 2.29099 18.6999 2.52921C18.1569 2.61656 17.3538 3.00238 16.8807 2.95682Z" fill="#3374DF"/>
<path d="M20.7734 35.0938C20.9549 34.8033 21.2649 34.48 21.4726 34.199C22.0312 33.4423 22.6857 32.7266 23.2646 32.0036C23.7532 31.3934 24.2403 30.6709 24.7438 30.0548C25.0192 29.7178 25.25 29.3168 25.5542 28.9844C25.4851 29.2295 25.0826 30.1753 24.9382 30.3708C23.8867 31.794 22.8097 33.3237 21.4443 34.4627C21.2376 34.635 21.0065 34.9879 20.7734 35.0938Z" fill="#3374DF"/>
<path d="M16.4082 40.4122C16.4962 40.2071 16.5308 39.9743 16.6315 39.7743C17.0169 39.0081 17.5396 38.4756 18.2939 38.0991C17.9338 38.6339 16.8502 39.9234 16.4082 40.4122Z" fill="#3374DF"/>
<path d="M15.2363 41.9162C15.399 41.6693 15.5766 41.387 15.7829 41.1787C15.7454 41.3192 15.715 41.4211 15.6684 41.5584C15.8187 41.5766 15.8693 41.5225 16.0206 41.5152C15.7323 41.7289 15.5704 41.7794 15.2363 41.9162Z" fill="#3374DF"/>
<path d="M16.8808 2.95615C17.3538 3.00171 18.1569 2.61589 18.6999 2.52854C20.1812 2.29032 21.6335 2.11608 23.1303 2.01195C23.5077 1.98567 24.0349 2.02645 24.366 1.9959C25.3917 1.89068 26.3385 1.87881 27.3564 2.09134C27.5478 2.13126 27.5989 2.10294 27.7878 2.1927C27.2145 2.24199 26.5336 2.08716 25.9295 2.11235C23.194 2.22652 20.453 2.2619 17.784 2.95329C17.3123 3.07497 16.7293 3.39422 16.2595 3.56169C15.6784 3.76881 15.0953 3.82746 14.5625 4.1463C14.1689 4.2824 13.9639 4.39576 13.5559 4.36079C13.3986 4.41322 13.3133 4.44532 13.1629 4.5143C12.7676 4.67163 12.3975 4.92758 12.0098 5.09965C12.0688 4.99902 12.1431 4.75539 12.2304 4.6774C12.9051 4.07455 14.1248 3.59693 14.9781 3.31928C15.3362 3.20274 16.0129 3.18296 16.3551 3.14849C16.4386 3.1289 16.7811 2.99312 16.8808 2.95615Z" fill="#3374DF"/>
<path d="M12.0098 5.10008C12.0688 4.99945 12.1431 4.75582 12.2304 4.67784C12.9051 4.07498 14.1248 3.59736 14.9781 3.31971C15.3362 3.20317 16.0129 3.18339 16.3551 3.14893C15.9057 3.35955 15.409 3.49459 14.9532 3.68384C14.5009 3.87164 13.9903 4.12727 13.5559 4.36122C13.3986 4.41365 13.3133 4.44575 13.1629 4.51473C12.7676 4.67206 12.3975 4.92802 12.0098 5.10008Z" fill="#3374DF"/>
<path d="M17.8764 3.77739C18.0377 3.79157 18.4021 3.69727 18.5952 3.66835C19.7065 3.50183 20.7167 3.35028 21.8385 3.29403C23.1559 3.22796 25.5166 2.95005 26.7042 3.44877C26.5428 3.45336 26.4006 3.47764 26.2415 3.50042C26.242 3.59955 26.2595 3.55849 26.1943 3.62588C24.7475 3.24583 23.0052 3.51457 21.5182 3.58027C19.9611 3.64907 18.2702 3.98073 16.7696 4.42794C16.473 4.44936 15.8691 4.69376 15.5907 4.73364C15.1505 4.79675 14.376 4.83363 13.9303 4.82635L13.9043 4.77934C14.3656 4.59231 14.8058 4.71286 15.2773 4.58213C16.1498 4.34013 17.0108 4.04667 17.8764 3.77739Z" fill="#3374DF"/>
<path d="M13.9041 4.77913L13.9301 4.82615C14.3758 4.83342 15.1503 4.79655 15.5904 4.73343C15.8688 4.69356 16.4728 4.44915 16.7693 4.42773L17.4119 4.44501C16.1775 4.74712 15.708 5.03968 14.3593 5.02195C13.7376 5.01376 12.355 5.57342 11.7121 5.71879C11.4189 5.8115 10.2932 6.27985 10.0859 6.20492C10.2982 5.89776 11.6249 5.28622 12.0089 5.09952C12.3966 4.92746 12.7667 4.6715 13.162 4.51417L13.184 4.59216C13.3835 4.54223 13.5922 4.42064 13.7688 4.45129C13.6286 4.56169 13.6555 4.49603 13.6298 4.63213C13.7387 4.74526 13.7552 4.73698 13.9041 4.77913Z" fill="#3374DF"/>
<path d="M45.6036 14.1882C47.3882 14.0999 49.1582 14.5481 50.6859 15.4749C55.1985 18.2059 56.1465 23.7386 53.5853 27.8565C53.0943 28.6458 53.0356 30.5142 53.2561 31.435C53.879 34.035 56.6725 34.8799 59.055 34.8522C59.7534 34.8881 60.629 34.5411 61.2638 34.8831C61.9039 35.2282 61.6634 35.908 61.7125 36.5196C61.743 36.9006 61.7871 37.6891 61.5948 38.0037C61.4093 38.3066 60.6331 38.4603 60.3012 38.5162C57.5068 39.0036 54.8038 38.5839 52.42 36.9756C49.2532 34.8385 47.8551 30.8075 49.3596 27.2376C49.5292 26.8352 49.8316 26.4287 50.0866 26.0663C50.193 25.924 50.2917 25.7766 50.3831 25.6248C51.0337 24.558 51.1724 23.1515 50.8741 21.95C50.5822 20.7467 49.8243 19.7087 48.7672 19.0644C47.8269 18.5035 46.7803 18.3219 45.7182 18.5989C44.627 18.8806 43.6977 19.5941 43.1434 20.5754C42.4719 21.7146 42.2923 23.0778 42.6455 24.352C43.198 26.3632 44.9393 27.9083 47.0481 27.7155C47.3605 27.6873 47.8101 27.681 48.0843 27.8365C48.4094 28.2598 48.293 30.7052 47.9656 31.2209C47.8933 31.335 47.4214 31.3982 47.2823 31.4082C44.9216 31.5878 42.5864 30.8193 40.7928 29.2738C35.0126 24.2966 37.6997 14.7947 45.6036 14.1882Z" fill="#3374DF"/>
<path d="M45.2382 15.2244C47.3501 15.014 49.4616 15.6329 51.1257 16.9503C51.1661 16.9827 51.152 16.9695 51.1834 17.0047C52.6688 18.1194 53.7523 20.3044 54.0019 22.1297C54.1397 23.1364 54.106 23.5165 53.9483 24.5104L53.9733 24.937C53.9992 25.4585 53.0839 26.7826 52.9557 27.2478C52.6975 28.1858 52.5779 29.274 52.5993 30.2416C52.6061 30.5599 52.4529 31.0446 52.5502 31.3565C52.6325 31.5616 52.9462 31.7699 53.0653 31.9849C53.6327 33.013 54.1351 33.7083 55.119 34.3776C55.465 34.6127 55.9956 35.0015 56.3075 35.2898C56.3994 35.3743 56.4426 35.4039 56.5476 35.473C57.4633 35.664 58.369 35.7013 59.3006 35.6958C59.6744 35.694 60.0758 35.6517 60.4455 35.6908C60.571 35.704 60.6542 35.7322 60.7292 35.8381C60.9411 36.1392 60.9492 36.803 60.8697 37.1554C60.8383 37.2927 60.7787 37.3878 60.6583 37.4642C59.8544 37.9739 56.6172 37.6492 55.7638 37.4214C55.7328 37.4132 55.7019 37.4032 55.6719 37.3923C55.2486 37.3514 54.4939 37.0317 54.1006 36.8653C52.2792 35.9755 50.9565 34.5231 50.1677 32.6715C49.9404 31.9681 49.8685 31.6757 49.7662 30.9241C49.402 30.5003 49.6325 29.0957 49.7212 28.5673C49.8694 27.6834 50.4337 26.99 50.7788 26.1697C50.9138 25.8491 50.8251 25.3294 50.922 25.0229C51.0384 24.655 51.3485 24.2381 51.3998 23.8375C51.4649 22.9469 51.4758 21.9516 51.0961 21.1275C51.0775 21.0872 51.0875 20.5136 51.0798 20.3901C50.8806 20.15 50.8474 20.0886 50.7474 19.7928C50.3828 19.5363 48.8091 18.5414 48.6082 18.3149L48.6464 18.2705C48.7141 18.3116 48.8191 18.3714 48.8928 18.404C49.3497 18.6071 49.8253 19.07 50.2814 19.2461C50.27 19.0313 49.7057 18.8162 49.6257 18.5066C47.8298 16.9103 44.5207 17.4837 42.9757 19.2075C42.0109 20.284 41.4926 22.191 41.6381 23.6101C41.8468 25.6618 42.6366 26.9554 44.3366 28.0563C45.7001 28.6756 45.8156 28.6792 47.3192 28.731C47.3137 29.0366 47.3015 29.3417 47.326 29.6459C47.361 29.8469 47.4179 30.3721 47.2383 30.4994C45.039 30.5963 44.0479 30.3071 42.1487 29.0898C41.6367 28.7542 41.3162 28.45 40.892 28.0149C40.8856 28.0112 40.8797 28.0076 40.8738 28.0035C39.0701 26.4871 38.5182 24.0248 38.7128 21.759C39.0147 18.2533 41.7895 15.6055 45.2382 15.2244Z" fill="#3374DF"/>
<path d="M45.2382 15.2244C47.3501 15.014 49.4616 15.6329 51.1257 16.9503C51.1661 16.9827 51.152 16.9695 51.1834 17.0047C51.2857 17.3084 51.5262 17.4678 51.5685 17.6468C50.8342 17.031 50.4496 16.5941 49.5002 16.2125C49.116 16.0581 47.3624 15.4865 47.0368 15.6226C47.2464 15.7587 47.3551 15.7509 47.5488 15.8858C47.3315 16.005 47.3919 15.9662 47.1023 15.9482L47.2223 15.925L47.2664 15.8781L47.3778 15.879L47.3901 15.8596C47.2164 15.8387 47.2014 15.8353 47.0273 15.8638L46.9891 15.8704L46.91 15.8308C46.5353 15.5721 45.6437 15.7033 45.2004 15.788C44.6758 15.888 42.8553 16.4963 42.537 16.8452C42.5243 16.8595 42.5088 16.8718 42.497 16.8868C42.4079 16.9967 42.3378 17.1244 42.2315 17.22C42.1301 17.311 41.9932 17.3609 41.88 17.4348C41.5831 17.6285 40.8447 18.1019 40.6247 18.2995C40.4128 18.4898 40.2418 18.7921 40.0927 19.0338C39.5144 19.9712 39.1338 20.8999 39.1465 22.0167C39.1524 22.5265 39.2861 23.0916 39.2152 23.5919C39.2597 23.6638 39.4603 24.54 39.4957 24.7278C39.6817 25.705 40.7624 27.4138 41.6036 27.9494L41.6313 28.0076C42.1069 28.5805 42.3187 28.6442 42.7993 29.0639L42.8516 29.1162C42.5252 29.1216 42.4333 28.9816 42.1487 29.0898C41.6367 28.7542 41.3162 28.45 40.892 28.0149C40.8856 28.0112 40.8797 28.0076 40.8738 28.0035C39.0701 26.4871 38.5182 24.0248 38.7128 21.759C39.0147 18.2533 41.7895 15.6055 45.2382 15.2244Z" fill="#3374DF"/>
<path d="M40.892 28.0141C40.8856 28.0105 40.8797 28.0068 40.8738 28.0028C39.0701 26.4863 38.5182 24.0241 38.7128 21.7583C39.0147 18.2525 41.7895 15.6047 45.2382 15.2236C45.0081 15.4054 43.9146 15.5416 43.5223 15.6973C41.5699 16.4624 39.9413 18.0108 39.2356 20.0046C39.2025 20.0982 39.0547 20.3738 39.0488 20.4379C38.9824 21.1535 38.9374 21.8808 39.062 22.5926C39.1202 22.9259 39.2006 23.2692 39.2152 23.5912C39.2597 23.663 39.4603 24.5392 39.4957 24.727C39.6817 25.7042 40.7624 27.413 41.6036 27.9486L41.6313 28.0069C42.1069 28.5798 42.3187 28.6434 42.7993 29.0631L42.8516 29.1154C42.5252 29.1209 42.4333 28.9808 42.1487 29.0891C41.6367 28.7535 41.3162 28.4493 40.892 28.0141Z" fill="#3374DF"/>
<path d="M41.522 28.1824L41.4102 28.0305L41.4261 27.9477C41.562 27.9414 41.4947 27.9364 41.6316 28.0069C42.1072 28.5798 42.319 28.6434 42.7996 29.0631C42.3563 28.9599 42.0485 29.0349 41.8284 28.5539C41.7534 28.3893 41.6684 28.287 41.522 28.1824Z" fill="#3374DF"/>
<path d="M52.841 27.1275C53.4234 26.1721 53.6266 25.5751 53.9476 24.5093L53.9726 24.9358C53.9986 25.4573 53.0833 26.7815 52.9551 27.2466C52.6968 28.1847 52.5773 29.2728 52.5986 30.2404C52.6055 30.5587 52.4522 31.0434 52.5495 31.3554C52.6318 31.5604 52.9455 31.7687 53.0647 31.9838C53.6321 33.0119 54.1345 33.7071 55.1184 34.3764C55.4644 34.6115 55.995 35.0003 56.3069 35.2886C56.3987 35.3732 56.4419 35.4027 56.547 35.4718C55.4276 35.2509 53.9972 34.1755 53.352 33.251C53.2829 33.1519 52.3245 31.5209 52.3145 31.49C52.0994 30.812 52.2417 29.2069 52.359 28.5157C52.4968 27.9341 52.5859 27.6681 52.841 27.1275Z" fill="#3374DF"/>
<path d="M50.7466 19.7908C50.382 19.5343 48.8084 18.5395 48.6074 18.313L48.6456 18.2686C48.7134 18.3097 48.8184 18.3694 48.892 18.4021C49.349 18.6051 49.8246 19.0681 50.2806 19.2441C50.2692 19.0293 49.705 18.8142 49.625 18.5046C50.562 19.1277 51.44 20.4352 51.6823 21.5359C52.0179 23.0583 51.4209 25.5948 50.5757 26.8739L50.5302 26.9412C49.66 28.5267 49.6491 29.1774 49.7655 30.9221C49.4013 30.4983 49.6318 29.0937 49.7204 28.5654C49.8687 27.6814 50.4329 26.988 50.778 26.1677C50.913 25.8471 50.8244 25.3274 50.9212 25.0209C51.0376 24.6531 51.3477 24.2361 51.3991 23.8355C51.4641 22.9449 51.475 21.9496 51.0954 21.1255C51.0767 21.0852 51.0867 20.5116 51.079 20.3882C50.8799 20.148 50.8467 20.0867 50.7466 19.7908Z" fill="#3374DF"/>
<path d="M49.765 30.9234C49.6486 29.1786 49.6595 28.528 50.5298 26.9424C50.6357 27.3853 50.2065 28.7867 50.1019 29.4215C49.94 30.4054 50.3183 31.8805 50.1665 32.6708C49.9391 31.9674 49.8673 31.675 49.765 30.9234Z" fill="#3374DF"/>
<path d="M44.334 28.0557C45.6975 28.675 45.813 28.6786 47.3166 28.7304C47.3112 29.036 47.2989 29.3411 47.3234 29.6453C47.2616 29.7608 47.2648 29.7526 47.1616 29.8345L47.102 29.7649L47.0802 29.804C47.1388 29.8368 46.6542 29.4657 46.5855 29.4202C46.159 28.9883 45.2592 28.8182 44.7309 28.5245C44.4495 28.3685 44.4595 28.343 44.334 28.0557Z" fill="#3374DF"/>
<path d="M52.3594 28.5153C52.4003 27.3344 53.0364 26.0271 53.326 24.858C53.4801 24.2364 53.617 22.9738 53.8689 22.4624L53.9048 22.4949C53.9239 22.7578 53.9353 24.1109 53.8802 24.3301C53.6456 25.27 52.8986 26.1062 52.8413 27.127C52.5863 27.6677 52.4971 27.9337 52.3594 28.5153Z" fill="#3374DF"/>
<path d="M46.5899 29.4199C46.6585 29.4654 47.1432 29.8364 47.0845 29.8037L47.1064 29.7646L47.1659 29.8342C47.1614 29.8755 47.1232 30.1033 47.1105 30.1193C46.593 30.7818 44.4338 30.016 44.0605 29.7678C44.3988 29.7228 45.9652 30.4739 46.3457 30.102L46.263 30.0151C46.3425 29.55 46.4485 29.7305 46.5899 29.4199Z" fill="#3374DF"/>
<path d="M54.1016 36.8644C54.5512 36.7803 54.594 36.7117 54.9954 36.9763C55.1682 37.0904 55.4524 37.2359 55.6474 37.3155L55.6729 37.3914C55.2496 37.3505 54.4949 37.0309 54.1016 36.8644Z" fill="#3374DF"/>
<path d="M46.9097 15.8307L46.9888 15.8704L47.027 15.8638C47.2011 15.8352 47.2161 15.8387 47.3898 15.8595L47.3775 15.8789L47.2661 15.8781L47.222 15.925L47.102 15.9482C46.7301 15.9311 45.7794 16.1357 45.4961 16.0502C46.1381 15.7535 46.1954 15.8232 46.9097 15.8307Z" fill="#3374DF"/>
<path d="M51.1045 32.2911C51.054 32.2093 50.8189 31.2917 50.7894 31.1211C50.6107 29.9676 50.8694 28.6839 51.1308 27.5512C51.3195 26.7328 51.7687 25.812 52.0188 24.994C52.1475 24.5715 52.3707 23.5439 52.5608 23.1999L52.4344 23.1524L52.4689 23.0136L52.4016 22.9647L52.2907 23.0705L52.267 22.9463L52.2016 23.0279C52.0961 22.7259 52.1911 22.3288 52.1375 22.111C52.037 21.7023 51.6473 20.9267 51.7615 20.4822C51.9751 20.5925 51.9433 20.7145 52.1302 20.7394C52.1238 20.3303 51.0804 19.2266 50.8071 18.8721C50.7116 18.7484 50.5593 18.7288 50.4138 18.6949L50.3633 18.6062L50.412 18.4657C48.622 16.5999 46.2391 16.6259 44.0498 17.6539C42.4148 18.3044 41.355 19.2059 40.9858 20.9703C40.9067 21.1845 40.5234 21.5437 40.6275 21.7921C40.7298 22.0364 40.5048 22.3017 40.503 22.3967C40.4989 22.5871 40.5252 23.9872 40.543 24.0613C41.0986 26.3945 42.8113 27.9136 44.785 29.0977C45.1774 29.3332 45.758 29.3628 46.0426 29.7879L46.0417 29.8766C45.7339 30.1112 44.8068 29.6092 44.4936 29.4787C42.9618 28.8412 41.6815 27.7295 40.7521 26.3626C39.8605 25.0599 39.4349 22.8922 39.7455 21.3262C40.0724 19.6789 41.0604 18.432 42.4758 17.5147C43.9493 16.5598 46.1358 16.0697 47.8945 16.3309C48.672 16.5098 49.4299 16.8709 50.1415 17.2266C50.2829 17.2973 50.5311 17.648 50.6675 17.734C51.7073 18.3875 52.182 19.3315 52.7504 20.3759C53.0832 20.9877 53.2055 22.141 53.2478 22.8691C53.1987 23.3167 53.0795 23.8504 52.9436 24.2755C52.8108 24.6902 52.7422 25.2208 52.5903 25.6037C51.856 27.4544 51.5664 28.7608 51.555 30.751L51.6182 30.641L51.6742 30.6651C51.746 30.9334 51.7233 31.3335 51.806 31.5686C52.1215 32.4666 52.8254 33.4297 53.3178 34.2318C53.722 34.5806 54.3899 35.1271 54.8241 35.3849C55.442 35.7523 56.2145 35.982 56.8346 36.2562C57.4966 36.549 59.8214 36.4753 60.1451 36.8682C60.1387 36.9023 60.1433 36.9605 60.0932 36.9669C58.34 37.1851 56.4168 37.2574 54.7964 36.3557C54.5722 36.2307 54.3781 36.1011 54.1762 35.9711C54.0593 36.0129 53.8952 36.0161 53.7679 36.0265C53.7511 36.0847 53.7675 36.0597 53.7143 36.0984C52.9495 35.8815 51.9274 34.8243 51.33 34.2709C51.2227 34.1709 50.9176 33.4206 50.934 33.2669C51.0299 33.356 51.1254 33.4452 51.2204 33.5356L51.2399 33.4752C51.0835 33.1778 51.1172 32.6512 51.1045 32.2911Z" fill="#3374DF"/>
<path d="M42.4902 19.1919C42.592 19.101 42.6507 19.0493 42.7653 18.9692L42.7844 18.9903C42.1251 19.6596 41.4299 21.9839 41.4663 22.9192C41.469 22.9904 41.4726 23.0615 41.4781 23.1325L41.4576 23.1638C41.4222 23.0568 41.4058 23.0085 41.3844 22.8985C41.3799 22.7951 41.4149 22.0593 41.4217 22.0992C41.3308 22.2412 41.3517 22.4671 41.2985 22.6943L41.2335 22.7045C41.1216 21.8429 41.8991 19.8577 42.4902 19.1919Z" fill="#3374DF"/>
<path d="M25.9598 17.2314C26.4089 17.2357 26.8561 17.5313 27.1633 17.832C28.3095 18.9713 27.918 20.7577 26.3475 21.2562C25.4229 21.5496 24.465 21.4492 23.4961 21.4498L19.0496 21.4522L12.0045 21.4649C10.7927 21.4683 9.39919 21.512 8.20919 21.4631C7.77343 21.3899 7.49659 21.3059 7.13217 21.0322C6.6609 20.6792 6.35105 20.1519 6.27207 19.5684C6.11535 18.3338 7.11626 17.214 8.34709 17.2729C8.77539 17.2934 9.23615 17.2806 9.66908 17.2862C10.4203 17.294 11.1715 17.2959 11.9227 17.292L20.8412 17.2909C22.2898 17.2921 24.5572 17.3604 25.9598 17.2314Z" fill="#3374DF"/>
<path d="M7.75137 18.4153C8.38091 17.9617 9.37204 18.0957 10.1178 18.1035C10.8051 18.1039 11.4923 18.1101 12.1795 18.1222C12.9472 18.0597 13.8623 18.1166 14.6427 18.1158C16.486 18.1138 18.3263 18.0798 20.165 18.2315C20.8326 18.2866 21.5568 18.2069 22.2199 18.2567C23.3141 18.2047 24.4815 18.2437 25.5823 18.2455C25.9647 18.2461 26.1706 18.315 26.4727 18.5497C26.5756 18.6574 26.7045 18.7855 26.797 18.8977C26.9092 19.1165 26.9269 19.3717 26.8459 19.6038C26.6502 20.1695 25.9359 20.4104 25.3875 20.4287C24.3313 20.4641 23.2634 20.4424 22.2058 20.4408L16.2314 20.4442C15.189 20.4489 14.2008 20.5522 13.1666 20.5961C12.08 20.6422 11.0028 20.547 9.92296 20.4778C9.37695 20.4428 8.73291 20.7436 8.18172 20.4885C7.75174 20.3149 7.45716 20.04 7.2526 19.6259C7.12539 19.0464 7.32658 18.7794 7.75137 18.4153Z" fill="#3374DF"/>
<path d="M26.7964 18.8979C26.9086 19.1167 26.9263 19.3719 26.8453 19.604C26.6496 20.1697 25.9352 20.4106 25.3869 20.429C24.3307 20.4643 23.2627 20.4426 22.2052 20.441L16.2308 20.4444C15.1883 20.4491 14.2002 20.5525 13.166 20.5963C12.0794 20.6424 11.0021 20.5472 9.92231 20.478C9.3763 20.443 8.73226 20.7438 8.18107 20.4887C7.75109 20.3151 7.45651 20.0402 7.25195 19.6261C7.93518 19.6811 7.93987 20.1547 8.73567 19.8471C9.11964 19.6987 9.92808 20.0313 10.4637 19.7811C10.9193 19.5684 12.0644 19.7683 12.5752 19.728C12.9169 19.7607 13.4549 19.6637 13.778 19.7301C14.6351 19.9563 15.558 19.8231 16.4013 19.93C17.4572 20.0891 18.4516 19.9286 19.506 19.9411C21.6793 19.967 23.8727 19.9625 26.0443 19.8808C26.5382 19.8622 26.7892 19.3577 26.7964 18.8979Z" fill="#3374DF"/>
<path d="M7.75 18.4153C8.37953 17.9617 9.37067 18.0957 10.1165 18.1035C10.8037 18.1039 11.491 18.1101 12.1781 18.1222C12.9459 18.0597 13.8609 18.1166 14.6413 18.1158C16.4846 18.1138 18.3249 18.0798 20.1636 18.2315C20.8312 18.2866 21.5555 18.2069 22.2185 18.2567C21.5612 18.3876 18.2822 18.2723 18.0609 18.4063C17.457 18.4304 16.5404 18.4527 15.9524 18.3303C14.9981 18.323 13.9754 18.4773 12.9908 18.4405C12.3221 18.4156 10.6915 18.1732 10.083 18.3154C9.84002 18.3043 9.34771 18.2675 9.15297 18.3938C8.63533 18.383 8.22372 18.4233 7.75 18.4153Z" fill="#3374DF"/>
<path d="M22.2181 18.2574C23.3124 18.2054 24.4798 18.2444 25.5805 18.2462C25.963 18.2468 26.1688 18.3157 26.4709 18.5504C25.9147 18.5881 25.3565 18.4475 24.7987 18.4452C23.8438 18.4412 18.3883 18.6907 18.0605 18.407C18.2818 18.273 21.5608 18.3883 22.2181 18.2574Z" fill="#3374DF"/>
<path d="M9.15234 18.3947C9.34708 18.2684 9.83939 18.3052 10.0824 18.3164C10.1771 18.3564 10.2488 18.3636 10.3506 18.3756C10.132 18.4393 9.38832 18.4329 9.15234 18.3947Z" fill="#3374DF"/>
<path d="M8.37448 18.9523C8.66915 18.8707 10.1667 18.9889 10.5741 19.0033C11.0663 19.0159 11.5587 19.0194 12.051 19.0139C13.3086 19.0005 14.5662 18.9999 15.8239 19.0119C16.3532 19.022 16.8897 19.0796 17.4223 19.0959C18.6315 19.1239 19.8411 19.1347 21.0506 19.1284C21.9974 19.1285 22.9542 19.09 23.9018 19.0977C24.3236 19.1011 25.6947 18.8749 25.9424 19.2325C25.8325 19.3581 25.8253 19.3247 25.6276 19.3766C24.3102 19.3516 22.9781 19.4508 21.6593 19.4656C20.0614 19.4835 8.38894 19.5387 8.00925 19.3022C7.94887 19.2646 7.95614 19.2385 7.9375 19.1755L7.99702 19.069C8.15024 18.9606 8.17898 18.9698 8.37448 18.9523Z" fill="#3374DF"/>
<path d="M2.10394 8.26304C2.8766 8.2313 3.43357 8.42314 3.83481 9.16531C3.97331 9.4214 4.16672 10.1147 4.16445 10.3967C4.15499 11.5584 4.08556 12.7243 4.03882 13.8859L3.85941 19.5905L3.70396 24.8203C3.67391 26.2827 3.70164 28.5599 3.46198 30.0422C3.3841 30.5237 2.4834 31.5073 1.98936 31.7455C0.968948 32.1038 0.317681 31.1931 0.0752068 30.3127C-0.0427342 29.8253 0.0129629 29.301 0.0142814 28.809C0.0191918 26.9329 0.111398 25.0631 0.176052 23.1891L0.329003 17.3765L0.467995 12.0788C0.5186 10.6206 0.273669 8.77527 2.10394 8.26304Z" fill="#3374DF"/>
<path d="M2.28628 9.20225C2.74181 9.1938 3.12214 9.69952 3.14415 10.1264C3.32838 13.3436 3.07613 16.533 2.99474 19.745C2.95451 21.3333 2.91522 22.902 2.86075 24.4908L2.75473 28.0444C2.73286 28.6823 2.73472 29.4594 2.60273 30.0774C2.51466 30.4898 2.13138 30.7326 1.7896 30.9277C1.51998 30.8686 1.26669 30.709 1.13229 30.4725C0.897678 30.0592 0.899632 29.2343 0.889129 28.7864C0.866305 27.8097 1.01235 26.8194 1.04117 25.859C1.1126 23.4805 1.21613 21.1085 1.3252 18.732C1.36853 17.7884 1.26882 16.7587 1.29101 15.8095C1.31775 14.667 1.38913 13.5232 1.43264 12.38C1.45928 11.68 1.37508 10.8742 1.53671 10.1974C1.64847 9.72953 1.87685 9.43838 2.28628 9.20225Z" fill="#3374DF"/>
<path d="M19.9097 10.2334C21.0881 10.265 22.6848 11.2736 22.7045 12.5667C22.7129 13.0216 22.5373 13.4606 22.2173 13.7842C21.2061 14.8191 18.7908 14.5564 17.4136 14.5578L9.60584 14.5092C8.78676 14.5151 8.29349 14.5426 7.59235 14.0038C7.13449 13.652 6.77126 13.1421 6.71402 12.5531C6.66719 12.1053 6.80572 11.6577 7.09744 11.3147C8.06102 10.1758 10.1215 10.452 11.4804 10.4227L17.0364 10.3117C17.9847 10.2923 18.9676 10.3045 19.9097 10.2334Z" fill="#3374DF"/>
<path d="M10.9654 11.4161C12.9073 11.4184 14.8491 11.3883 16.79 11.3259C17.9059 11.2953 19.0732 11.2176 20.1825 11.3064C20.8956 11.3635 22.2828 12.3691 21.4966 13.103C21.3218 13.2652 21.1005 13.3686 20.864 13.3986C20.2734 13.5313 18.276 13.5315 17.6214 13.5285C16.2573 13.5222 14.8044 13.5487 13.4417 13.5206L10.6405 13.5149C9.91951 13.5164 7.31358 13.6971 7.62539 12.363C7.82921 11.188 10.1256 11.4044 10.9654 11.4161Z" fill="#3374DF"/>
<path d="M13.4416 13.5217C13.2314 13.3537 11.6848 13.2266 11.3351 13.213L11.248 13.21L11.2638 13.1908C12.1146 13.1083 13.5366 13.1753 14.4049 13.1902C16.0283 13.2179 17.7223 13.1074 19.323 13.2996L19.0254 13.3092C19.6938 13.3778 20.2309 13.3476 20.8639 13.3997C20.2733 13.5325 18.2759 13.5326 17.6213 13.5296C16.2572 13.5234 14.8043 13.5499 13.4416 13.5217Z" fill="#3374DF"/>
<path d="M9.13549 12.1013C9.32859 12.0313 9.99068 12.0546 10.2223 12.0545L12.2771 12.0543C13.4082 12.0547 19.8641 11.9584 20.2885 12.2612L20.1963 12.3087C20.1114 12.6778 19.5845 12.6935 19.2741 12.6919L12.5405 12.6478L10.3388 12.649C10.0236 12.6504 8.19801 12.7805 8.35087 12.2607C8.60444 12.0499 8.80263 12.0949 9.13549 12.1013Z" fill="#3374DF"/>
<path d="M19.0857 23.973C19.2189 23.9611 19.3738 23.9439 19.5063 23.9425C20.6918 23.9298 22.3759 24.9406 22.3912 26.2342C22.3952 26.7235 22.1982 27.1932 21.8462 27.5329C20.8443 28.506 18.4479 28.2609 17.1052 28.2613L9.6074 28.2118C8.68988 28.2213 7.97478 28.3045 7.22144 27.657C6.78091 27.2782 6.43559 26.8181 6.39694 26.2192C6.36248 25.7418 6.5333 25.2721 6.86643 24.9283C7.87057 23.8788 9.98423 24.1526 11.3516 24.1212L19.0857 23.973Z" fill="#3374DF"/>
<path d="M7.39554 25.7917C7.60032 25.5616 8.05281 25.1587 8.35953 25.1519C11.4641 25.0837 14.5599 25.141 17.6678 25.0023C18.7323 24.955 19.9342 24.7968 20.8461 25.4279C21.8823 26.145 21.5014 27.0635 20.3108 27.1312C19.4891 27.2631 17.7447 27.2349 16.8737 27.2317L11.941 27.2176C11.4481 27.2167 8.57795 27.2581 8.28196 27.1794C7.60678 26.7752 7.30879 26.6183 7.39554 25.7917Z" fill="#3374DF"/>
<path d="M8.27734 27.1788C8.94975 27.1225 10.1722 27.0206 10.8253 27.0411C11.8302 27.0729 12.8218 27.0943 13.8335 27.0752C14.1839 27.0684 14.9819 27.1134 15.2921 27.0565C16.5533 26.8246 17.7605 26.8274 19.0273 26.982C19.4673 27.0361 19.8668 27.1088 20.3062 27.1306C19.4845 27.2625 17.7401 27.2343 16.8691 27.2311L11.9364 27.217C11.4435 27.2161 8.57333 27.2575 8.27734 27.1788Z" fill="#3374DF"/>
<path d="M56.183 24.1895C56.1744 23.6756 56.0898 22.6602 56.3489 22.2495C56.5986 22.0621 57.6634 22.1715 57.9898 22.2214C59.3029 22.4219 61.0047 22.9183 61.8091 24.0558C61.6936 24.2654 61.5831 24.4718 61.454 24.6733C61.0848 25.1457 60.6783 25.6395 60.3587 26.1429C60.0222 25.9819 59.6762 25.8105 59.3361 25.66C59.2875 25.6554 59.3034 25.6591 59.2547 25.6445C58.7364 25.489 58.2472 25.3958 57.7157 25.3112C57.4906 25.2994 57.2096 25.283 56.9868 25.2921C56.0516 25.3317 56.1198 24.9615 56.183 24.1895Z" fill="#3374DF"/>
<path d="M56.1821 24.1895C56.1735 23.6756 56.0889 22.6602 56.3481 22.2495C56.5977 22.0621 57.6625 22.1715 57.989 22.2214C59.302 22.4219 61.0039 22.9183 61.8082 24.0558C61.6927 24.2654 61.5822 24.4718 61.4531 24.6733C61.3576 24.5682 61.349 24.5796 61.2098 24.535C60.9229 24.7456 60.7902 25.0448 60.5533 25.303C60.5983 25.1693 60.6074 24.9906 60.6215 24.8456L60.9043 24.5714C60.2132 23.4687 58.1176 22.6966 56.9146 23.081C56.6513 23.2648 56.5618 23.3539 56.4631 23.6606C56.389 23.8061 56.3672 23.8853 56.2294 23.9716L56.1821 24.1895Z" fill="#3374DF"/>
<path d="M56.2656 23.0424L56.4416 22.9176C56.6862 23.0175 56.6639 23.0154 56.9149 22.8869L56.8699 22.8513C56.8067 22.8005 56.8312 22.8217 56.7735 22.7662C57.5205 22.3524 59.6247 23.0747 60.3313 23.501C60.5481 23.632 61.1324 24.1567 61.2529 24.3804C61.2406 24.4405 61.2388 24.485 61.2115 24.535C60.9246 24.7456 60.7918 25.0448 60.555 25.303C60.6 25.1694 60.6091 24.9907 60.6232 24.8456L60.906 24.5714C60.2149 23.4688 58.1193 22.6966 56.9163 23.081C56.7257 23.1037 56.4634 23.0631 56.2656 23.0424Z" fill="#3374DF"/>
<path d="M56.264 23.042C56.4618 23.0628 56.7241 23.1033 56.9146 23.0806C56.6514 23.2644 56.5618 23.3536 56.4631 23.6603C56.389 23.8058 56.3672 23.8849 56.2294 23.9713C56.2253 23.698 56.199 23.2952 56.264 23.042Z" fill="#3374DF"/>
<path d="M61.2086 24.5361C61.3477 24.5807 61.3563 24.5693 61.4518 24.6744C61.0826 25.1468 60.6762 25.6406 60.3565 26.144C60.0201 25.983 59.6741 25.8116 59.334 25.6611C59.6254 25.7125 59.7145 25.7111 60.0001 25.6315C60.121 25.667 60.1692 25.6511 60.2992 25.6443C60.4588 25.5506 60.4684 25.4824 60.552 25.3041C60.7889 25.0459 60.9217 24.7467 61.2086 24.5361Z" fill="#3374DF"/>
<path d="M57.7188 25.3116C59.0914 25.2189 58.7504 25.3421 60.0053 25.6309C59.7197 25.7104 59.6306 25.7118 59.3392 25.6604C59.2905 25.6559 59.3065 25.6595 59.2578 25.6449C58.7395 25.4894 58.2503 25.3962 57.7188 25.3116Z" fill="#3374DF"/>
<path d="M56.9163 23.081C58.1194 22.6965 60.2149 23.4687 60.906 24.5714L60.6232 24.8456C60.5278 24.9675 60.3291 25.2817 60.219 25.4349C59.4479 25.2576 59.1383 24.9133 58.4508 24.621C57.9557 24.4104 56.9532 24.4414 56.7113 23.8034C56.9059 23.8561 57.1746 24.0899 57.3273 24.1399C57.8088 24.2972 58.1871 24.2936 58.6732 24.4905C59.0533 24.6442 59.813 25.1284 60.134 25.1798C60.9933 24.9338 60.0099 24.0512 59.6571 23.817C58.9514 23.3488 57.1528 22.7552 56.5881 23.6215L56.4648 23.6606C56.5635 23.3539 56.6531 23.2648 56.9163 23.081Z" fill="#3374DF"/>
<path d="M57.0967 23.3891C57.9106 23.351 59.8229 23.8882 60.2967 24.7062C60.359 24.813 60.2553 24.9272 60.198 25.0231C59.6361 24.8308 59.0323 24.3633 58.4075 24.1696C57.9738 24.035 57.0631 24.0378 56.9258 23.6249C56.9735 23.4725 56.9658 23.5144 57.0967 23.3891Z" fill="#3374DF"/>
</svg>
